<svg id="svg" version="1.1" xmlns="http://www.w3.org/2000/svg" xmlns:xlink="http://www.w3.org/1999/xlink" width="400" height="400" viewBox="0, 0, 400,400"><g id="svgg"><path id="path0" d="M0.000 200.000 L 0.000 400.000 200.000 400.000 L 400.000 400.000 400.000 200.000 L 400.000 0.000 200.000 0.000 L 0.000 0.000 0.000 200.000 M241.200 119.045 C 241.200 119.130,240.559 119.200,239.776 119.200 C 238.993 119.200,238.445 119.050,238.559 118.867 C 238.754 118.551,241.200 118.717,241.200 119.045 M251.473 119.545 C 251.825 120.109,252.649 120.361,254.847 120.577 C 256.729 120.763,258.090 121.127,258.706 121.612 C 259.228 122.023,260.442 122.477,261.401 122.621 C 262.361 122.765,263.232 123.106,263.337 123.379 C 263.441 123.652,264.399 124.114,265.464 124.406 C 266.529 124.697,267.813 125.253,268.319 125.640 C 268.824 126.028,269.804 126.469,270.496 126.621 C 271.188 126.773,272.002 127.145,272.305 127.448 C 272.608 127.751,273.338 128.110,273.928 128.245 C 274.518 128.381,275.630 128.894,276.400 129.386 C 277.170 129.878,278.686 130.847,279.769 131.540 C 280.851 132.233,281.880 132.800,282.054 132.800 C 282.229 132.800,283.143 133.346,284.086 134.013 C 285.801 135.227,286.408 135.632,289.400 137.558 C 290.883 138.513,293.939 140.739,294.400 141.200 C 294.510 141.310,296.040 142.570,297.800 144.000 C 307.730 152.067,322.251 168.662,326.097 176.339 C 326.480 177.104,327.039 178.016,327.339 178.365 C 327.639 178.714,328.911 180.890,330.166 183.200 C 331.421 185.510,332.617 187.670,332.825 188.000 C 333.032 188.330,333.393 189.050,333.626 189.600 C 333.860 190.150,334.670 191.973,335.425 193.650 C 337.507 198.270,337.067 199.600,333.456 199.600 C 330.774 199.600,326.000 193.874,326.000 190.656 C 326.000 189.267,316.107 173.493,311.540 167.600 C 303.408 157.107,290.929 145.698,279.400 138.217 C 277.420 136.932,275.170 135.468,274.400 134.964 C 273.630 134.460,271.650 133.355,270.000 132.510 C 268.350 131.664,266.550 130.683,266.000 130.328 C 265.450 129.973,264.550 129.553,264.000 129.394 C 263.450 129.235,262.730 128.879,262.400 128.603 C 262.070 128.327,261.080 127.876,260.200 127.600 C 259.320 127.324,258.306 126.843,257.947 126.530 C 257.588 126.218,256.598 125.770,255.747 125.535 C 254.896 125.301,253.731 124.776,253.158 124.369 C 252.585 123.961,251.375 123.509,250.469 123.365 C 249.407 123.195,248.743 122.852,248.599 122.398 C 248.371 121.678,246.821 121.200,244.717 121.200 C 243.213 121.200,243.416 120.333,245.033 119.853 C 245.675 119.663,246.470 119.358,246.800 119.177 C 248.003 118.516,250.977 118.750,251.473 119.545 M72.200 177.408 C 79.226 178.442,81.255 178.934,89.400 181.584 C 100.218 185.104,112.280 190.870,119.000 195.734 C 127.587 201.949,133.913 207.757,137.807 213.000 C 138.461 213.880,139.099 214.690,139.225 214.800 C 139.641 215.163,142.400 219.809,142.400 220.146 C 142.400 220.328,142.728 220.954,143.130 221.538 C 146.203 226.010,147.106 236.027,144.927 241.476 C 142.860 246.643,138.380 252.426,134.363 255.111 C 130.920 257.412,130.017 257.932,128.722 258.360 C 127.959 258.612,126.636 259.174,125.783 259.609 C 124.929 260.044,123.954 260.401,123.615 260.402 C 123.277 260.404,122.460 260.693,121.800 261.046 C 117.899 263.130,104.392 264.007,95.600 262.748 C 88.865 261.783,88.544 261.827,88.182 263.753 C 87.132 269.355,79.085 267.294,78.214 261.200 C 77.654 257.280,77.594 257.156,75.859 256.313 C 63.590 250.351,51.729 238.872,52.537 233.743 C 53.023 230.663,56.521 227.253,61.400 225.102 C 64.781 223.612,69.049 222.000,69.614 222.000 C 70.935 222.000,77.091 220.253,77.700 219.705 C 78.259 219.203,78.400 218.413,78.400 215.790 C 78.400 212.768,78.944 208.689,80.006 203.754 C 81.685 195.947,87.136 203.445,87.890 214.600 C 88.191 219.052,88.302 219.200,91.345 219.200 C 95.118 219.200,102.310 219.975,104.800 220.651 C 106.010 220.979,108.037 221.505,109.304 221.820 C 117.580 223.877,122.468 230.032,120.179 235.513 C 118.525 239.471,114.593 241.388,110.404 240.277 C 107.980 239.634,107.976 238.887,110.388 237.048 C 111.495 236.204,112.400 235.213,112.400 234.846 C 112.400 233.907,111.269 232.400,110.565 232.400 C 110.240 232.400,108.855 232.021,107.487 231.557 C 101.235 229.440,88.599 228.188,88.349 229.661 C 87.947 232.023,88.613 252.775,89.106 253.267 C 89.991 254.150,99.712 254.604,107.155 254.109 C 141.905 251.799,144.836 223.966,112.600 202.399 C 106.810 198.525,106.738 198.483,100.956 195.670 C 95.278 192.907,93.467 192.084,92.400 191.784 C 91.850 191.629,91.220 191.370,91.000 191.208 C 90.590 190.906,83.750 188.751,78.400 187.238 C 76.750 186.772,73.780 186.132,71.800 185.816 C 69.820 185.500,67.030 185.035,65.600 184.784 C 62.629 184.261,49.048 184.123,45.286 184.578 C 42.384 184.929,42.250 185.506,44.514 187.891 L 45.740 189.182 44.227 189.815 C 40.558 191.347,35.587 189.190,36.214 186.337 C 37.406 180.909,41.458 178.855,55.000 176.814 C 59.157 176.188,65.362 176.402,72.200 177.408 M167.280 184.428 C 167.786 184.691,168.920 185.485,169.800 186.192 C 170.680 186.900,172.058 187.695,172.863 187.958 C 173.689 188.229,175.125 189.292,176.163 190.402 C 183.520 198.267,166.875 213.818,152.420 212.583 C 149.441 212.328,149.385 212.341,148.259 213.527 C 146.312 215.579,144.193 214.375,143.742 210.960 C 143.600 209.882,142.859 207.650,142.095 206.000 C 139.413 200.201,140.583 196.128,146.600 190.322 C 147.920 189.049,149.166 188.005,149.369 188.003 C 149.571 188.001,150.025 187.740,150.376 187.421 C 153.541 184.557,163.971 182.710,167.280 184.428 M152.329 192.900 C 152.038 193.175,151.279 193.670,150.641 193.999 C 148.681 195.012,145.902 198.750,146.202 199.969 C 146.613 201.635,147.046 201.740,147.995 200.408 C 148.486 199.718,149.421 198.579,150.073 197.877 C 152.701 195.046,154.366 192.899,154.123 192.657 C 153.714 192.248,152.902 192.358,152.329 192.900 M167.800 192.729 C 162.154 194.691,152.298 204.101,154.477 205.448 C 157.134 207.089,167.302 203.260,170.900 199.264 C 173.969 195.854,171.824 191.331,167.800 192.729 M338.371 207.385 C 339.748 208.097,339.842 208.328,340.388 212.315 C 340.627 214.057,341.005 216.093,341.229 216.841 C 341.452 217.588,341.741 220.180,341.871 222.600 C 342.214 228.971,341.198 228.400,352.188 228.400 C 364.096 228.400,364.249 228.459,364.037 233.000 C 363.885 236.252,364.099 236.188,353.119 236.287 C 346.852 236.344,343.314 236.526,343.033 236.807 C 342.768 237.071,342.499 240.460,342.341 245.519 C 342.199 250.074,342.064 254.213,342.041 254.718 C 341.971 256.292,340.277 257.601,338.318 257.595 C 334.103 257.581,333.801 256.952,334.376 249.363 C 335.060 240.322,334.963 236.906,334.013 236.604 C 333.580 236.467,329.089 236.320,324.033 236.277 C 318.103 236.227,314.687 236.047,314.409 235.769 C 313.623 234.983,313.460 231.508,314.135 229.894 L 314.759 228.400 324.131 228.400 C 331.422 228.400,333.600 228.282,333.942 227.870 C 334.440 227.270,333.866 217.083,333.216 215.000 C 331.863 210.661,331.999 207.481,333.556 207.065 C 334.994 206.681,337.306 206.834,338.371 207.385 M226.533 215.300 C 229.600 218.349,231.618 221.488,232.407 224.436 C 232.666 225.406,233.025 226.380,233.204 226.600 C 234.985 228.786,234.823 244.954,232.979 249.050 C 229.137 257.586,222.537 254.979,216.143 242.400 C 215.752 241.630,215.230 240.730,214.984 240.400 C 214.737 240.070,214.235 238.985,213.868 237.988 C 213.381 236.664,212.890 236.058,212.047 235.740 L 210.894 235.305 210.613 243.152 C 210.458 247.469,210.182 251.692,210.000 252.538 C 208.791 258.143,202.350 256.711,201.918 250.741 C 200.809 235.409,205.310 218.857,210.054 220.822 C 211.480 221.413,215.414 225.700,217.374 228.800 C 218.140 230.010,218.937 231.200,219.146 231.444 C 219.355 231.688,219.905 232.588,220.367 233.444 C 221.412 235.376,221.952 236.252,223.099 237.873 C 223.595 238.574,224.006 239.294,224.013 239.473 C 224.020 239.653,224.276 240.130,224.581 240.534 C 226.491 243.054,226.510 236.784,224.613 230.013 C 224.276 228.810,224.002 227.550,224.005 227.213 C 224.008 226.876,223.568 225.070,223.027 223.200 C 220.843 215.649,220.669 213.640,222.120 212.717 C 223.080 212.107,223.668 212.451,226.533 215.300 M281.778 217.047 C 283.252 217.612,283.136 222.317,281.603 224.200 C 281.289 224.585,280.587 225.832,277.772 231.000 C 276.450 233.428,274.800 237.862,274.800 238.987 C 274.800 240.581,277.044 238.528,280.315 233.943 C 285.908 226.103,293.104 220.414,297.440 220.404 C 303.706 220.389,306.774 231.833,302.943 240.935 C 299.087 250.097,288.690 257.878,282.072 256.554 C 280.522 256.244,278.995 257.739,278.387 260.159 C 278.161 261.061,277.629 262.610,277.206 263.600 C 276.784 264.590,276.317 266.023,276.169 266.784 C 276.021 267.545,275.584 268.904,275.198 269.804 C 274.813 270.704,274.363 272.421,274.198 273.620 C 274.034 274.819,273.653 276.610,273.352 277.600 C 273.051 278.590,272.613 281.020,272.378 283.000 C 271.531 290.160,269.438 291.232,265.443 286.556 C 260.837 281.163,260.784 275.749,265.206 262.200 C 266.457 258.365,268.612 252.926,269.158 252.224 C 270.020 251.115,269.957 249.187,268.991 247.113 C 266.254 241.234,269.001 230.982,275.483 222.878 C 277.075 220.889,280.821 216.800,281.052 216.800 C 281.098 216.800,281.424 216.911,281.778 217.047 M192.319 217.988 C 199.398 218.802,202.100 221.909,198.140 224.682 C 196.369 225.923,196.142 225.952,185.000 226.400 C 175.109 226.798,171.778 227.269,169.987 228.524 C 168.798 229.357,170.391 229.872,175.200 230.209 C 177.290 230.355,179.990 230.640,181.200 230.843 C 182.410 231.045,185.123 231.473,187.229 231.795 C 196.969 233.282,200.566 238.038,198.574 246.795 C 197.887 249.817,194.750 253.625,192.479 254.195 C 191.901 254.340,190.631 254.821,189.658 255.265 C 186.569 256.672,176.416 256.645,174.607 255.224 C 174.383 255.048,173.480 254.680,172.600 254.406 C 166.450 252.493,162.094 246.895,163.510 242.726 C 164.825 238.855,168.021 237.572,176.456 237.526 C 179.017 237.512,181.357 237.346,181.656 237.157 C 181.984 236.949,180.762 236.810,178.584 236.806 C 170.190 236.792,162.791 235.080,161.987 232.966 C 158.152 222.878,172.637 215.725,192.319 217.988 M264.860 218.432 C 267.031 219.594,269.600 223.036,269.600 224.781 C 269.600 226.167,264.927 227.287,256.800 227.847 C 252.486 228.144,251.838 228.379,251.033 229.936 C 250.083 231.773,250.597 232.001,255.913 232.105 C 261.489 232.214,262.109 232.512,262.109 235.082 C 262.109 238.813,260.824 239.525,253.744 239.718 C 247.833 239.880,247.114 240.222,246.396 243.217 C 245.586 246.593,245.857 246.674,253.120 245.216 C 260.756 243.684,260.850 243.686,262.799 245.447 C 264.943 247.384,264.966 248.751,262.886 250.747 C 260.856 252.694,259.908 253.418,258.112 254.390 C 257.280 254.840,256.330 255.376,256.000 255.580 C 244.125 262.937,232.992 256.031,237.166 243.898 C 238.077 241.250,238.228 239.664,237.813 237.084 C 237.471 234.960,237.976 234.047,240.101 232.948 C 243.347 231.269,243.873 227.712,241.060 226.468 C 238.808 225.472,237.519 223.705,237.847 222.066 C 238.143 220.583,238.312 220.510,243.800 219.516 C 252.052 218.022,263.037 217.456,264.860 218.432 M156.093 220.540 C 157.462 222.238,157.951 224.625,158.402 231.800 C 158.650 235.760,159.020 241.070,159.223 243.600 C 159.985 253.100,159.544 255.475,156.740 256.980 C 155.066 257.878,152.947 257.260,151.151 255.348 C 148.526 252.553,149.374 225.888,152.267 220.273 C 152.961 218.927,154.903 219.062,156.093 220.540 M295.102 230.900 C 294.134 232.055,292.489 234.080,291.446 235.400 C 290.404 236.720,289.292 238.117,288.975 238.505 C 288.659 238.892,288.400 239.325,288.400 239.467 C 288.400 239.609,287.986 240.281,287.479 240.962 C 285.523 243.591,284.720 245.303,285.277 245.656 C 287.305 246.942,293.735 243.171,296.508 239.070 C 301.234 232.081,300.020 225.032,295.102 230.900 M74.767 229.360 C 74.675 229.448,72.530 229.728,70.000 229.981 C 65.965 230.386,63.718 230.870,58.533 232.454 C 54.140 233.795,56.322 238.207,63.800 243.102 C 65.340 244.110,66.690 245.040,66.800 245.168 C 66.910 245.295,67.630 245.708,68.400 246.083 C 69.170 246.459,70.250 247.024,70.800 247.338 C 74.052 249.197,76.515 250.124,77.144 249.726 C 77.925 249.234,78.313 231.332,77.573 229.950 C 77.218 229.286,75.269 228.877,74.767 229.360 M183.824 238.533 C 183.170 239.012,183.343 239.135,185.545 239.753 C 189.314 240.810,189.761 243.822,186.262 244.580 C 185.197 244.811,184.462 245.135,184.629 245.300 C 185.217 245.880,187.896 245.597,188.846 244.855 C 189.371 244.445,190.190 243.988,190.667 243.839 C 192.387 243.300,192.636 241.165,191.127 239.893 C 189.017 238.114,185.334 237.428,183.824 238.533 M167.771 243.469 C 166.487 244.855,166.632 245.196,169.018 246.400 C 171.215 247.509,178.820 248.047,181.622 247.292 L 183.000 246.921 181.200 246.391 C 180.210 246.100,179.130 245.641,178.800 245.370 C 178.470 245.099,177.300 244.607,176.200 244.276 C 175.100 243.945,173.531 243.387,172.713 243.037 C 170.484 242.082,168.930 242.218,167.771 243.469 " stroke="none" fill="#0b2159" fill-rule="evenodd"></path><path id="path1" d="M238.559 118.867 C 238.445 119.050,238.993 119.200,239.776 119.200 C 240.559 119.200,241.200 119.130,241.200 119.045 C 241.200 118.717,238.754 118.551,238.559 118.867 M246.800 119.177 C 246.470 119.358,245.675 119.663,245.033 119.853 C 243.416 120.333,243.213 121.200,244.717 121.200 C 246.821 121.200,248.371 121.678,248.599 122.398 C 248.743 122.852,249.407 123.195,250.469 123.365 C 251.375 123.509,252.585 123.961,253.158 124.369 C 253.731 124.776,254.896 125.301,255.747 125.535 C 256.598 125.770,257.588 126.218,257.947 126.530 C 258.306 126.843,259.320 127.324,260.200 127.600 C 261.080 127.876,262.070 128.327,262.400 128.603 C 262.730 128.879,263.450 129.235,264.000 129.394 C 264.550 129.553,265.450 129.973,266.000 130.328 C 266.550 130.683,268.350 131.664,270.000 132.510 C 271.650 133.355,273.630 134.460,274.400 134.964 C 275.170 135.468,277.420 136.932,279.400 138.217 C 290.929 145.698,303.408 157.107,311.540 167.600 C 316.107 173.493,326.000 189.267,326.000 190.656 C 326.000 193.874,330.774 199.600,333.456 199.600 C 337.067 199.600,337.507 198.270,335.425 193.650 C 334.670 191.973,333.860 190.150,333.626 189.600 C 333.393 189.050,333.032 188.330,332.825 188.000 C 332.617 187.670,331.421 185.510,330.166 183.200 C 328.911 180.890,327.639 178.714,327.339 178.365 C 327.039 178.016,326.480 177.104,326.097 176.339 C 322.251 168.662,307.730 152.067,297.800 144.000 C 296.040 142.570,294.510 141.310,294.400 141.200 C 293.939 140.739,290.883 138.513,289.400 137.558 C 286.408 135.632,285.801 135.227,284.086 134.013 C 283.143 133.346,282.229 132.800,282.054 132.800 C 281.880 132.800,280.851 132.233,279.769 131.540 C 278.686 130.847,277.170 129.878,276.400 129.386 C 275.630 128.894,274.518 128.381,273.928 128.245 C 273.338 128.110,272.608 127.751,272.305 127.448 C 272.002 127.145,271.188 126.773,270.496 126.621 C 269.804 126.469,268.824 126.028,268.319 125.640 C 267.813 125.253,266.529 124.697,265.464 124.406 C 264.399 124.114,263.441 123.652,263.337 123.379 C 263.232 123.106,262.361 122.765,261.401 122.621 C 260.442 122.477,259.228 122.023,258.706 121.612 C 258.090 121.127,256.729 120.763,254.847 120.577 C 252.649 120.361,251.825 120.109,251.473 119.545 C 250.977 118.750,248.003 118.516,246.800 119.177 M55.000 176.814 C 41.458 178.855,37.406 180.909,36.214 186.337 C 35.587 189.190,40.558 191.347,44.227 189.815 L 45.740 189.182 44.514 187.891 C 42.250 185.506,42.384 184.929,45.286 184.578 C 49.048 184.123,62.629 184.261,65.600 184.784 C 67.030 185.035,69.820 185.500,71.800 185.816 C 73.780 186.132,76.750 186.772,78.400 187.238 C 83.750 188.751,90.590 190.906,91.000 191.208 C 91.220 191.370,91.850 191.629,92.400 191.784 C 94.380 192.341,105.199 197.605,108.000 199.374 C 140.553 219.927,144.670 243.736,117.200 252.574 C 111.109 254.533,90.875 255.033,89.106 253.267 C 88.613 252.775,87.947 232.023,88.349 229.661 C 88.599 228.188,101.235 229.440,107.487 231.557 C 108.855 232.021,110.240 232.400,110.565 232.400 C 111.269 232.400,112.400 233.907,112.400 234.846 C 112.400 235.213,111.495 236.204,110.388 237.048 C 107.976 238.887,107.980 239.634,110.404 240.277 C 114.593 241.388,118.525 239.471,120.179 235.513 C 122.468 230.032,117.580 223.877,109.304 221.820 C 108.037 221.505,106.010 220.979,104.800 220.651 C 102.310 219.975,95.118 219.200,91.345 219.200 C 88.302 219.200,88.191 219.052,87.890 214.600 C 87.136 203.445,81.685 195.947,80.006 203.754 C 78.944 208.689,78.400 212.768,78.400 215.790 C 78.400 218.413,78.259 219.203,77.700 219.705 C 77.091 220.253,70.935 222.000,69.614 222.000 C 69.049 222.000,64.781 223.612,61.400 225.102 C 56.521 227.253,53.023 230.663,52.537 233.743 C 51.729 238.872,63.590 250.351,75.859 256.313 C 77.594 257.156,77.654 257.280,78.214 261.200 C 79.085 267.294,87.132 269.355,88.182 263.753 C 88.544 261.827,88.865 261.783,95.600 262.748 C 104.392 264.007,117.899 263.130,121.800 261.046 C 122.460 260.693,123.277 260.404,123.615 260.402 C 123.954 260.401,124.929 260.044,125.783 259.609 C 126.636 259.174,127.959 258.612,128.722 258.360 C 130.017 257.932,130.920 257.412,134.363 255.111 C 138.380 252.426,142.860 246.643,144.927 241.476 C 147.106 236.027,146.203 226.010,143.130 221.538 C 142.728 220.954,142.400 220.328,142.400 220.146 C 142.400 219.809,139.641 215.163,139.225 214.800 C 139.099 214.690,138.461 213.880,137.807 213.000 C 133.913 207.757,127.587 201.949,119.000 195.734 C 110.677 189.710,96.745 183.523,81.800 179.215 C 74.617 177.145,60.938 175.919,55.000 176.814 M159.000 183.971 C 156.829 184.319,151.407 186.489,150.376 187.421 C 150.025 187.740,149.571 188.001,149.369 188.003 C 149.166 188.005,147.920 189.049,146.600 190.322 C 140.583 196.128,139.413 200.201,142.095 206.000 C 142.859 207.650,143.600 209.882,143.742 210.960 C 144.193 214.375,146.312 215.579,148.259 213.527 C 149.385 212.341,149.441 212.328,152.420 212.583 C 166.875 213.818,183.520 198.267,176.163 190.402 C 175.125 189.292,173.689 188.229,172.863 187.958 C 172.058 187.695,170.680 186.900,169.800 186.192 C 166.891 183.853,163.756 183.208,159.000 183.971 M154.123 192.657 C 154.366 192.899,152.701 195.046,150.073 197.877 C 149.421 198.579,148.486 199.718,147.995 200.408 C 147.046 201.740,146.613 201.635,146.202 199.969 C 145.902 198.750,148.681 195.012,150.641 193.999 C 151.279 193.670,152.038 193.175,152.329 192.900 C 152.902 192.358,153.714 192.248,154.123 192.657 M171.700 193.646 C 174.383 196.877,169.548 202.341,162.009 204.597 C 154.091 206.967,152.077 205.542,156.725 200.857 C 164.050 193.473,169.413 190.890,171.700 193.646 M333.556 207.065 C 331.999 207.481,331.863 210.661,333.216 215.000 C 333.866 217.083,334.440 227.270,333.942 227.870 C 333.600 228.282,331.422 228.400,324.131 228.400 L 314.759 228.400 314.135 229.894 C 313.460 231.508,313.623 234.983,314.409 235.769 C 314.687 236.047,318.103 236.227,324.033 236.277 C 329.089 236.320,333.580 236.467,334.013 236.604 C 334.963 236.906,335.060 240.322,334.376 249.363 C 333.801 256.952,334.103 257.581,338.318 257.595 C 340.277 257.601,341.971 256.292,342.041 254.718 C 342.064 254.213,342.199 250.074,342.341 245.519 C 342.499 240.460,342.768 237.071,343.033 236.807 C 343.314 236.526,346.852 236.344,353.119 236.287 C 364.099 236.188,363.885 236.252,364.037 233.000 C 364.249 228.459,364.096 228.400,352.188 228.400 C 341.198 228.400,342.214 228.971,341.871 222.600 C 341.741 220.180,341.452 217.588,341.229 216.841 C 341.005 216.093,340.627 214.057,340.388 212.315 C 340.150 210.572,339.853 208.882,339.729 208.559 C 339.216 207.221,335.938 206.428,333.556 207.065 M222.120 212.717 C 220.669 213.640,220.843 215.649,223.027 223.200 C 223.568 225.070,224.008 226.876,224.005 227.213 C 224.002 227.550,224.276 228.810,224.613 230.013 C 226.510 236.784,226.491 243.054,224.581 240.534 C 224.276 240.130,224.020 239.653,224.013 239.473 C 224.006 239.294,223.595 238.574,223.099 237.873 C 221.952 236.252,221.412 235.376,220.367 233.444 C 219.905 232.588,219.355 231.688,219.146 231.444 C 218.937 231.200,218.140 230.010,217.374 228.800 C 215.414 225.700,211.480 221.413,210.054 220.822 C 205.310 218.857,200.809 235.409,201.918 250.741 C 202.350 256.711,208.791 258.143,210.000 252.538 C 210.182 251.692,210.458 247.469,210.613 243.152 L 210.894 235.305 212.047 235.740 C 212.890 236.058,213.381 236.664,213.868 237.988 C 214.235 238.985,214.737 240.070,214.984 240.400 C 215.230 240.730,215.752 241.630,216.143 242.400 C 222.537 254.979,229.137 257.586,232.979 249.050 C 234.823 244.954,234.985 228.786,233.204 226.600 C 233.025 226.380,232.666 225.406,232.407 224.436 C 231.618 221.488,229.600 218.349,226.533 215.300 C 223.668 212.451,223.080 212.107,222.120 212.717 M279.138 218.700 C 269.908 228.272,265.702 240.048,268.991 247.113 C 269.957 249.187,270.020 251.115,269.158 252.224 C 268.612 252.926,266.457 258.365,265.206 262.200 C 260.784 275.749,260.837 281.163,265.443 286.556 C 269.438 291.232,271.531 290.160,272.378 283.000 C 272.613 281.020,273.051 278.590,273.352 277.600 C 273.653 276.610,274.034 274.819,274.198 273.620 C 274.363 272.421,274.813 270.704,275.198 269.804 C 275.584 268.904,276.021 267.545,276.169 266.784 C 276.317 266.023,276.784 264.590,277.206 263.600 C 277.629 262.610,278.161 261.061,278.387 260.159 C 278.995 257.739,280.522 256.244,282.072 256.554 C 288.690 257.878,299.087 250.097,302.943 240.935 C 306.774 231.833,303.706 220.389,297.440 220.404 C 293.104 220.414,285.908 226.103,280.315 233.943 C 277.044 238.528,274.800 240.581,274.800 238.987 C 274.800 237.862,276.450 233.428,277.772 231.000 C 280.587 225.832,281.289 224.585,281.603 224.200 C 283.498 221.873,283.120 216.800,281.052 216.800 C 281.007 216.800,280.145 217.655,279.138 218.700 M177.600 218.023 C 166.248 219.409,159.345 226.016,161.987 232.966 C 162.791 235.080,170.190 236.792,178.584 236.806 C 180.762 236.810,181.984 236.949,181.656 237.157 C 181.357 237.346,179.017 237.512,176.456 237.526 C 168.021 237.572,164.825 238.855,163.510 242.726 C 162.094 246.895,166.450 252.493,172.600 254.406 C 173.480 254.680,174.383 255.048,174.607 255.224 C 176.416 256.645,186.569 256.672,189.658 255.265 C 190.631 254.821,191.901 254.340,192.479 254.195 C 194.750 253.625,197.887 249.817,198.574 246.795 C 200.566 238.038,196.969 233.282,187.229 231.795 C 185.123 231.473,182.410 231.045,181.200 230.843 C 179.990 230.640,177.290 230.355,175.200 230.209 C 170.391 229.872,168.798 229.357,169.987 228.524 C 171.778 227.269,175.109 226.798,185.000 226.400 C 196.142 225.952,196.369 225.923,198.140 224.682 C 204.774 220.037,192.827 216.163,177.600 218.023 M250.600 218.415 C 247.319 218.832,239.548 220.252,238.745 220.582 C 236.593 221.465,238.034 225.129,241.060 226.468 C 243.873 227.712,243.347 231.269,240.101 232.948 C 237.976 234.047,237.471 234.960,237.813 237.084 C 238.228 239.664,238.077 241.250,237.166 243.898 C 232.992 256.031,244.125 262.937,256.000 255.580 C 256.330 255.376,257.280 254.840,258.112 254.390 C 259.908 253.418,260.856 252.694,262.886 250.747 C 264.966 248.751,264.943 247.384,262.799 245.447 C 260.850 243.686,260.756 243.684,253.120 245.216 C 245.857 246.674,245.586 246.593,246.396 243.217 C 247.114 240.222,247.833 239.880,253.744 239.718 C 260.824 239.525,262.109 238.813,262.109 235.082 C 262.109 232.512,261.489 232.214,255.913 232.105 C 250.597 232.001,250.083 231.773,251.033 229.936 C 251.838 228.379,252.486 228.144,256.800 227.847 C 264.927 227.287,269.600 226.167,269.600 224.781 C 269.600 223.036,267.031 219.594,264.860 218.432 C 263.949 217.945,254.392 217.933,250.600 218.415 M152.267 220.273 C 149.374 225.888,148.526 252.553,151.151 255.348 C 152.947 257.260,155.066 257.878,156.740 256.980 C 159.544 255.475,159.985 253.100,159.223 243.600 C 159.020 241.070,158.650 235.760,158.402 231.800 C 157.820 222.538,156.944 220.001,154.124 219.413 C 153.003 219.179,152.777 219.284,152.267 220.273 M299.357 229.433 C 300.957 233.602,296.063 241.439,289.800 244.735 C 284.662 247.439,283.755 245.966,287.479 240.962 C 287.986 240.281,288.400 239.609,288.400 239.467 C 288.400 239.325,288.659 238.892,288.975 238.505 C 289.292 238.117,290.404 236.720,291.446 235.400 C 296.758 228.674,298.548 227.324,299.357 229.433 M77.573 229.950 C 78.313 231.332,77.925 249.234,77.144 249.726 C 76.515 250.124,74.052 249.197,70.800 247.338 C 70.250 247.024,69.170 246.459,68.400 246.083 C 67.630 245.708,66.910 245.295,66.800 245.168 C 66.690 245.040,65.340 244.110,63.800 243.102 C 56.322 238.207,54.140 233.795,58.533 232.454 C 63.718 230.870,65.965 230.386,70.000 229.981 C 72.530 229.728,74.675 229.448,74.767 229.360 C 75.269 228.877,77.218 229.286,77.573 229.950 M188.407 238.395 C 191.998 239.393,193.478 242.958,190.667 243.839 C 190.190 243.988,189.371 244.445,188.846 244.855 C 187.896 245.597,185.217 245.880,184.629 245.300 C 184.462 245.135,185.197 244.811,186.262 244.580 C 189.761 243.822,189.314 240.810,185.545 239.753 C 183.343 239.135,183.170 239.012,183.824 238.533 C 184.684 237.904,186.449 237.851,188.407 238.395 M172.713 243.037 C 173.531 243.387,175.100 243.945,176.200 244.276 C 177.300 244.607,178.470 245.099,178.800 245.370 C 179.130 245.641,180.210 246.100,181.200 246.391 L 183.000 246.921 181.622 247.292 C 177.354 248.442,167.477 246.883,166.908 244.969 C 166.351 243.097,170.009 241.879,172.713 243.037 " stroke="none" fill="#ecf2f7" fill-rule="evenodd"></path></g></svg>