<?xml version="1.0" encoding="UTF-8"?>
<svg xmlns="http://www.w3.org/2000/svg" xmlns:xlink="http://www.w3.org/1999/xlink" viewBox="0 0 160 160" width="160px" height="160px">
<g id="surface14616902">
<path style=" stroke:none;fill-rule:nonzero;fill:rgb(89.803922%,3.529412%,7.843138%);fill-opacity:1;" d="M 38.199219 157 L 38.199219 3 L 69 3 L 69 152.601562 Z M 38.199219 157 "/>
<path style=" stroke:none;fill-rule:nonzero;fill:rgb(56.862748%,1.568628%,4.705882%);fill-opacity:1;" d="M 38.199219 159.199219 C 37.675781 159.199219 37.160156 159.011719 36.761719 158.664062 C 36.277344 158.246094 36 157.636719 36 157 L 36 3 C 36 1.785156 36.984375 0.800781 38.199219 0.800781 L 69 0.800781 C 70.214844 0.800781 71.199219 1.785156 71.199219 3 L 71.199219 152.601562 C 71.199219 153.695312 70.394531 154.625 69.308594 154.777344 L 38.507812 159.179688 C 38.40625 159.191406 38.300781 159.199219 38.199219 159.199219 Z M 40.398438 5.199219 L 40.398438 154.464844 L 66.800781 150.695312 L 66.800781 5.199219 Z M 40.398438 5.199219 "/>
<path style=" stroke:none;fill-rule:nonzero;fill:rgb(89.803922%,3.529412%,7.843138%);fill-opacity:1;" d="M 91 3 L 91 71.199219 L 121.800781 157 L 121.800781 3 Z M 91 3 "/>
<path style=" stroke:none;fill-rule:nonzero;fill:rgb(56.862748%,1.568628%,4.705882%);fill-opacity:1;" d="M 121.800781 159.199219 C 120.886719 159.199219 120.046875 158.628906 119.726562 157.742188 L 88.925781 71.945312 C 88.84375 71.703125 88.800781 71.457031 88.800781 71.199219 L 88.800781 3 C 88.800781 1.785156 89.785156 0.800781 91 0.800781 L 121.800781 0.800781 C 123.015625 0.800781 124 1.785156 124 3 L 124 157 C 124 158.070312 123.230469 158.984375 122.179688 159.164062 C 122.050781 159.191406 121.921875 159.199219 121.800781 159.199219 Z M 93.199219 70.816406 L 119.601562 144.359375 L 119.601562 5.199219 L 93.199219 5.199219 Z M 93.199219 70.816406 "/>
<path style=" stroke:none;fill-rule:nonzero;fill:rgb(89.803922%,3.529412%,7.843138%);fill-opacity:1;" d="M 69 3 L 38.320312 3 L 88.800781 152.601562 L 121.800781 157 Z M 69 3 "/>
<path style=" stroke:none;fill-rule:nonzero;fill:rgb(56.862748%,1.568628%,4.705882%);fill-opacity:1;" d="M 121.800781 159.199219 C 121.707031 159.199219 121.605469 159.195312 121.507812 159.183594 L 88.507812 154.78125 C 87.683594 154.671875 86.984375 154.097656 86.71875 153.304688 L 36.234375 3.703125 C 36.003906 3.03125 36.117188 2.292969 36.527344 1.714844 C 36.9375 1.140625 37.605469 0.800781 38.3125 0.800781 L 69 0.800781 C 69.941406 0.800781 70.773438 1.398438 71.082031 2.289062 L 123.882812 156.289062 C 124.132812 157.007812 123.980469 157.804688 123.503906 158.394531 C 123.082031 158.910156 122.453125 159.199219 121.800781 159.199219 Z M 90.445312 150.601562 L 118.566406 154.351562 L 67.429688 5.199219 L 41.382812 5.199219 Z M 90.445312 150.601562 "/>
</g>
</svg>
