<?xml version="1.0" encoding="UTF-8"?>
<svg xmlns="http://www.w3.org/2000/svg" xmlns:xlink="http://www.w3.org/1999/xlink" viewBox="0 0 48 48" width="48px" height="48px">
<g id="surface14593050">
<path style=" stroke:none;fill-rule:nonzero;fill:rgb(30.980393%,76.47059%,96.862745%);fill-opacity:1;" d="M 47.398438 9.699219 L 47.398438 38.300781 C 47.398438 39.378906 47.21875 40.40625 46.867188 41.355469 C 45.957031 43.929688 43.929688 45.957031 41.355469 46.867188 C 40.40625 47.21875 39.378906 47.398438 38.300781 47.398438 L 9.699219 47.398438 C 4.667969 47.398438 0.601562 43.332031 0.601562 38.300781 L 0.601562 9.699219 C 0.601562 8.621094 0.78125 7.59375 1.132812 6.644531 C 2.042969 4.070312 4.070312 2.042969 6.644531 1.132812 C 7.59375 0.78125 8.621094 0.601562 9.699219 0.601562 L 38.300781 0.601562 C 43.332031 0.601562 47.398438 4.667969 47.398438 9.699219 Z M 47.398438 9.699219 "/>
<path style=" stroke:none;fill-rule:nonzero;fill:rgb(5.490196%,37.254903%,62.7451%);fill-opacity:1;" d="M 19.8125 47.398438 L 9.699219 47.398438 C 4.667969 47.398438 0.601562 43.332031 0.601562 38.300781 L 0.601562 28.1875 Z M 19.8125 47.398438 "/>
<path style=" stroke:none;fill-rule:nonzero;fill:rgb(0.784314%,46.666667%,74.117649%);fill-opacity:1;" d="M 30.863281 47.398438 L 19.8125 47.398438 L 0.601562 28.1875 L 0.601562 17.136719 Z M 30.863281 47.398438 "/>
<path style=" stroke:none;fill-rule:nonzero;fill:rgb(0.784314%,53.333336%,81.960785%);fill-opacity:1;" d="M 41.355469 46.867188 C 40.40625 47.21875 39.378906 47.398438 38.300781 47.398438 L 30.863281 47.398438 L 0.601562 17.136719 L 0.601562 9.699219 C 0.601562 8.621094 0.78125 7.59375 1.132812 6.644531 Z M 41.355469 46.867188 "/>
<path style=" stroke:none;fill-rule:nonzero;fill:rgb(1.176471%,60.784316%,89.803922%);fill-opacity:1;" d="M 46.867188 41.355469 C 45.957031 43.929688 43.929688 45.957031 41.355469 46.867188 L 1.132812 6.644531 C 2.042969 4.070312 4.070312 2.042969 6.644531 1.132812 Z M 46.867188 41.355469 "/>
<path style=" stroke:none;fill-rule:nonzero;fill:rgb(1.176471%,66.274512%,95.686275%);fill-opacity:1;" d="M 47.398438 30.863281 L 47.398438 38.300781 C 47.398438 39.378906 47.21875 40.40625 46.867188 41.355469 L 6.644531 1.132812 C 7.59375 0.78125 8.621094 0.601562 9.699219 0.601562 L 17.136719 0.601562 Z M 47.398438 30.863281 "/>
<path style=" stroke:none;fill-rule:nonzero;fill:rgb(16.078432%,71.372551%,96.470588%);fill-opacity:1;" d="M 47.398438 19.8125 L 47.398438 30.863281 L 17.136719 0.601562 L 28.1875 0.601562 Z M 47.398438 19.8125 "/>
<path style=" stroke:none;fill-rule:nonzero;fill:rgb(100%,100%,100%);fill-opacity:1;" d="M 29.222656 11.847656 C 29.421875 11.726562 29.628906 11.597656 29.847656 11.484375 C 30.40625 11.199219 31.03125 11.054688 31.664062 11.085938 C 32.121094 11.109375 32.535156 11.238281 32.855469 11.574219 C 33.160156 11.886719 33.273438 12.269531 33.304688 12.683594 C 33.3125 12.773438 33.3125 12.859375 33.3125 12.957031 L 33.3125 17.097656 C 33.3125 17.457031 33.265625 17.503906 32.90625 17.503906 L 31.929688 17.503906 C 31.867188 17.503906 31.800781 17.503906 31.738281 17.496094 C 31.644531 17.488281 31.5625 17.410156 31.546875 17.3125 C 31.527344 17.226562 31.527344 17.136719 31.527344 17.050781 L 31.527344 13.347656 C 31.535156 13.195312 31.519531 13.050781 31.480469 12.90625 C 31.417969 12.660156 31.191406 12.484375 30.9375 12.46875 C 30.464844 12.4375 29.992188 12.53125 29.5625 12.730469 C 29.496094 12.75 29.457031 12.8125 29.464844 12.875 L 29.464844 17.082031 C 29.464844 17.164062 29.464844 17.234375 29.449219 17.3125 C 29.449219 17.425781 29.359375 17.507812 29.25 17.507812 C 29.128906 17.515625 29.011719 17.515625 28.882812 17.515625 L 28.035156 17.515625 C 27.738281 17.515625 27.671875 17.441406 27.671875 17.144531 L 27.671875 13.363281 C 27.671875 13.226562 27.664062 13.082031 27.636719 12.949219 C 27.578125 12.675781 27.347656 12.484375 27.074219 12.46875 C 26.59375 12.4375 26.105469 12.53125 25.675781 12.738281 C 25.609375 12.757812 25.570312 12.828125 25.585938 12.890625 L 25.585938 17.152344 C 25.585938 17.449219 25.523438 17.515625 25.226562 17.515625 L 24.152344 17.515625 C 23.871094 17.515625 23.800781 17.433594 23.800781 17.164062 L 23.800781 11.613281 C 23.800781 11.546875 23.808594 11.484375 23.828125 11.417969 C 23.859375 11.324219 23.953125 11.269531 24.050781 11.269531 L 25.050781 11.269531 C 25.195312 11.269531 25.28125 11.355469 25.332031 11.492188 C 25.371094 11.601562 25.394531 11.707031 25.433594 11.828125 C 25.515625 11.828125 25.5625 11.773438 25.617188 11.738281 C 26.058594 11.46875 26.523438 11.234375 27.042969 11.140625 C 27.441406 11.058594 27.839844 11.058594 28.242188 11.140625 C 28.617188 11.222656 28.953125 11.445312 29.171875 11.765625 C 29.1875 11.789062 29.203125 11.804688 29.21875 11.820312 C 29.207031 11.828125 29.214844 11.828125 29.222656 11.847656 Z M 17.402344 12.152344 C 17.460938 12.132812 17.507812 12.101562 17.539062 12.054688 C 17.683594 11.910156 17.835938 11.773438 17.996094 11.648438 C 18.414062 11.328125 18.933594 11.167969 19.453125 11.210938 C 19.660156 11.21875 19.734375 11.28125 19.746094 11.480469 C 19.765625 11.753906 19.753906 12.03125 19.753906 12.304688 C 19.761719 12.417969 19.753906 12.523438 19.738281 12.632812 C 19.707031 12.777344 19.648438 12.832031 19.507812 12.851562 C 19.394531 12.859375 19.289062 12.851562 19.179688 12.84375 C 18.644531 12.792969 18.125 12.898438 17.621094 13.066406 C 17.507812 13.105469 17.507812 13.183594 17.507812 13.273438 L 17.507812 17.109375 C 17.507812 17.183594 17.507812 17.246094 17.5 17.316406 C 17.492188 17.421875 17.410156 17.5 17.308594 17.5 C 17.25 17.507812 17.1875 17.507812 17.132812 17.507812 L 16.09375 17.507812 C 16.035156 17.507812 15.972656 17.507812 15.917969 17.5 C 15.8125 17.492188 15.734375 17.40625 15.722656 17.300781 C 15.714844 17.238281 15.714844 17.171875 15.714844 17.109375 L 15.714844 11.667969 C 15.714844 11.300781 15.753906 11.261719 16.125 11.261719 L 16.890625 11.261719 C 17.097656 11.261719 17.195312 11.335938 17.25 11.535156 C 17.308594 11.734375 17.355469 11.933594 17.402344 12.152344 Z M 20.523438 14.375 L 20.523438 11.535156 C 20.53125 11.34375 20.601562 11.269531 20.792969 11.261719 C 21.210938 11.253906 21.625 11.253906 22.042969 11.261719 C 22.226562 11.261719 22.28125 11.320312 22.296875 11.5 C 22.304688 11.574219 22.304688 11.636719 22.304688 11.710938 L 22.304688 17.035156 C 22.304688 17.125 22.296875 17.210938 22.289062 17.300781 C 22.28125 17.402344 22.199219 17.476562 22.097656 17.484375 C 22.046875 17.492188 22.007812 17.492188 21.960938 17.492188 L 20.847656 17.492188 C 20.808594 17.492188 20.777344 17.492188 20.738281 17.484375 C 20.625 17.476562 20.527344 17.386719 20.519531 17.273438 C 20.511719 17.210938 20.511719 17.148438 20.511719 17.082031 C 20.523438 16.195312 20.523438 15.285156 20.523438 14.375 Z M 21.449219 8.398438 C 21.578125 8.390625 21.707031 8.414062 21.828125 8.453125 C 22.257812 8.597656 22.480469 8.972656 22.441406 9.460938 C 22.410156 9.878906 22.097656 10.214844 21.683594 10.277344 C 21.507812 10.308594 21.320312 10.308594 21.148438 10.277344 C 20.691406 10.191406 20.355469 9.855469 20.386719 9.277344 C 20.433594 8.710938 20.808594 8.398438 21.449219 8.398438 Z M 14.53125 13.71875 C 14.5 13.300781 14.386719 12.894531 14.21875 12.519531 C 13.890625 11.832031 13.386719 11.328125 12.621094 11.152344 C 11.742188 10.957031 10.949219 11.152344 10.230469 11.6875 C 10.179688 11.734375 10.125 11.773438 10.0625 11.804688 C 10.042969 11.796875 10.03125 11.789062 10.03125 11.78125 C 10.003906 11.699219 9.992188 11.621094 9.964844 11.542969 C 9.902344 11.34375 9.820312 11.269531 9.605469 11.269531 C 9.367188 11.269531 9.117188 11.277344 8.878906 11.269531 C 8.695312 11.261719 8.527344 11.289062 8.398438 11.429688 C 8.398438 14.230469 8.398438 17.039062 8.40625 19.828125 C 8.511719 19.996094 8.671875 20.027344 8.855469 20.019531 C 9.140625 20.011719 9.429688 20.019531 9.71875 20.019531 C 10.222656 20.019531 10.222656 20.019531 10.222656 19.523438 L 10.222656 17.246094 C 10.222656 17.1875 10.199219 17.125 10.253906 17.078125 C 10.652344 17.390625 11.140625 17.582031 11.644531 17.628906 C 12.351562 17.703125 12.988281 17.523438 13.527344 17.046875 C 13.917969 16.683594 14.207031 16.222656 14.359375 15.707031 C 14.574219 15.054688 14.589844 14.390625 14.53125 13.71875 Z M 12.621094 15.375 C 12.566406 15.621094 12.4375 15.84375 12.253906 16.011719 C 12.046875 16.1875 11.789062 16.292969 11.515625 16.292969 C 11.109375 16.316406 10.710938 16.230469 10.351562 16.039062 C 10.261719 16 10.207031 15.910156 10.214844 15.8125 L 10.214844 14.367188 C 10.214844 13.886719 10.222656 13.40625 10.214844 12.925781 C 10.207031 12.816406 10.269531 12.71875 10.375 12.679688 C 10.8125 12.46875 11.269531 12.375 11.75 12.46875 C 12.085938 12.519531 12.371094 12.734375 12.507812 13.046875 C 12.628906 13.300781 12.703125 13.582031 12.71875 13.863281 C 12.765625 14.375 12.765625 14.886719 12.621094 15.375 Z M 36.230469 14.894531 C 36.828125 15.003906 37.445312 15.011719 38.046875 14.917969 C 38.398438 14.871094 38.734375 14.765625 39.046875 14.597656 C 39.40625 14.390625 39.671875 14.101562 39.78125 13.703125 C 40.0625 12.695312 39.628906 11.679688 38.582031 11.304688 C 38.070312 11.136719 37.527344 11.082031 36.992188 11.152344 C 35.726562 11.296875 34.90625 11.992188 34.527344 13.199219 C 34.265625 14.023438 34.296875 14.863281 34.511719 15.695312 C 34.792969 16.757812 35.496094 17.390625 36.558594 17.613281 C 37.167969 17.75 37.78125 17.726562 38.390625 17.628906 C 38.710938 17.574219 39.03125 17.492188 39.335938 17.375 C 39.519531 17.300781 39.617188 17.191406 39.605469 16.980469 C 39.597656 16.789062 39.605469 16.589844 39.605469 16.390625 C 39.605469 16.152344 39.511719 16.078125 39.277344 16.132812 C 39.046875 16.191406 38.824219 16.238281 38.589844 16.285156 C 38.097656 16.390625 37.582031 16.390625 37.085938 16.300781 C 36.40625 16.167969 35.96875 15.582031 36.007812 14.863281 C 36.078125 14.871094 36.15625 14.875 36.230469 14.894531 Z M 36.03125 13.671875 C 36.054688 13.476562 36.109375 13.292969 36.183594 13.117188 C 36.421875 12.535156 36.925781 12.335938 37.4375 12.367188 C 37.582031 12.375 37.726562 12.40625 37.863281 12.460938 C 38.070312 12.550781 38.207031 12.742188 38.230469 12.96875 C 38.253906 13.101562 38.246094 13.246094 38.207031 13.382812 C 38.109375 13.671875 37.878906 13.789062 37.597656 13.847656 C 37.429688 13.886719 37.253906 13.902344 37.078125 13.886719 C 36.765625 13.886719 36.445312 13.859375 36.132812 13.8125 C 36.011719 13.796875 36.011719 13.796875 36.03125 13.671875 Z M 36.03125 13.671875 "/>
<path style=" stroke:none;fill-rule:nonzero;fill:rgb(100%,100%,100%);fill-opacity:1;" d="M 11.417969 28.117188 C 11.46875 27.945312 11.519531 27.78125 11.574219 27.613281 C 11.96875 26.28125 12.363281 24.960938 12.757812 23.628906 L 12.808594 23.476562 C 12.851562 23.320312 12.996094 23.226562 13.148438 23.226562 L 14.457031 23.226562 C 14.78125 23.226562 14.847656 23.320312 14.738281 23.628906 L 14.222656 24.992188 C 13.648438 26.488281 13.074219 27.988281 12.5 29.480469 C 12.480469 29.53125 12.457031 29.582031 12.4375 29.636719 C 12.375 29.816406 12.199219 29.9375 12.007812 29.917969 C 11.632812 29.910156 11.253906 29.910156 10.875 29.917969 C 10.609375 29.925781 10.457031 29.808594 10.363281 29.566406 C 10.148438 29 9.921875 28.425781 9.710938 27.859375 C 9.195312 26.511719 8.671875 25.167969 8.15625 23.808594 C 8.105469 23.707031 8.070312 23.585938 8.046875 23.476562 C 8.019531 23.304688 8.078125 23.21875 8.25 23.21875 C 8.738281 23.210938 9.230469 23.21875 9.710938 23.21875 C 9.914062 23.21875 10.007812 23.355469 10.058594 23.535156 C 10.15625 23.859375 10.25 24.195312 10.351562 24.519531 C 10.703125 25.714844 11.046875 26.914062 11.402344 28.109375 C 11.394531 28.117188 11.402344 28.117188 11.417969 28.117188 Z M 17.496094 26.574219 L 17.496094 29.660156 C 17.476562 29.832031 17.398438 29.910156 17.226562 29.917969 C 16.765625 29.925781 16.308594 29.925781 15.847656 29.917969 C 15.675781 29.917969 15.597656 29.832031 15.578125 29.667969 C 15.570312 29.617188 15.570312 29.558594 15.570312 29.507812 L 15.570312 23.570312 C 15.578125 23.300781 15.648438 23.226562 15.914062 23.226562 L 17.152344 23.226562 C 17.417969 23.226562 17.496094 23.300781 17.496094 23.570312 Z M 16.542969 20.144531 C 16.714844 20.128906 16.886719 20.160156 17.046875 20.230469 C 17.382812 20.359375 17.613281 20.667969 17.632812 21.027344 C 17.699219 21.808594 17.175781 22.203125 16.480469 22.1875 C 16.386719 22.1875 16.292969 22.167969 16.199219 22.152344 C 15.664062 22.023438 15.390625 21.613281 15.441406 21.019531 C 15.484375 20.546875 15.855469 20.195312 16.359375 20.152344 C 16.421875 20.144531 16.480469 20.136719 16.542969 20.144531 Z M 39.949219 26.074219 C 39.957031 25.976562 39.925781 25.773438 39.925781 25.765625 C 39.90625 25.605469 39.875 25.441406 39.832031 25.285156 C 39.511719 24.152344 38.800781 23.40625 37.640625 23.113281 C 37.101562 22.984375 36.554688 22.96875 36.003906 23.054688 C 34.84375 23.226562 34.011719 23.84375 33.609375 24.941406 C 33.214844 25.988281 33.222656 27.136719 33.617188 28.183594 C 33.960938 29.136719 34.644531 29.738281 35.632812 29.988281 C 36.15625 30.113281 36.707031 30.148438 37.246094 30.074219 C 39.046875 29.859375 39.796875 28.492188 39.914062 27.308594 C 39.914062 27.308594 39.957031 26.953125 39.957031 26.792969 Z M 37.890625 27.667969 C 37.839844 27.851562 37.761719 28.011719 37.652344 28.167969 C 37.464844 28.433594 37.164062 28.605469 36.835938 28.628906 C 36.675781 28.648438 36.511719 28.648438 36.347656 28.613281 C 35.988281 28.542969 35.6875 28.304688 35.542969 27.96875 C 35.414062 27.703125 35.335938 27.414062 35.3125 27.121094 C 35.269531 26.613281 35.261719 26.105469 35.378906 25.609375 C 35.421875 25.410156 35.507812 25.214844 35.613281 25.042969 C 35.800781 24.734375 36.125 24.535156 36.488281 24.511719 C 36.648438 24.492188 36.8125 24.492188 36.976562 24.527344 C 37.320312 24.597656 37.601562 24.820312 37.757812 25.136719 C 37.902344 25.4375 37.988281 25.773438 38.007812 26.105469 C 38.015625 26.261719 38.023438 26.414062 38.015625 26.570312 C 38.039062 26.949219 37.996094 27.320312 37.890625 27.667969 Z M 24.910156 20.207031 L 23.714844 20.207031 C 23.390625 20.207031 23.328125 20.265625 23.328125 20.589844 L 23.328125 23.371094 C 23.328125 23.433594 23.355469 23.492188 23.3125 23.554688 C 23.234375 23.546875 23.191406 23.492188 23.132812 23.457031 C 22.238281 22.933594 21.304688 22.839844 20.359375 23.277344 C 19.695312 23.585938 19.285156 24.144531 19.019531 24.804688 C 18.761719 25.441406 18.703125 26.109375 18.71875 26.789062 C 18.71875 27.421875 18.863281 28.046875 19.148438 28.613281 C 19.476562 29.242188 19.945312 29.722656 20.632812 29.929688 C 21.570312 30.21875 22.445312 30.074219 23.242188 29.480469 C 23.300781 29.449219 23.335938 29.386719 23.414062 29.371094 C 23.457031 29.464844 23.488281 29.566406 23.507812 29.671875 C 23.542969 29.808594 23.660156 29.902344 23.808594 29.902344 L 24.011719 29.902344 C 24.320312 29.902344 24.621094 29.910156 24.921875 29.902344 C 25.164062 29.902344 25.230469 29.824219 25.238281 29.574219 L 25.238281 20.53125 C 25.234375 20.265625 25.167969 20.207031 24.910156 20.207031 Z M 23.339844 26.519531 L 23.339844 28.082031 C 23.355469 28.183594 23.296875 28.28125 23.199219 28.320312 C 22.789062 28.550781 22.316406 28.648438 21.851562 28.578125 C 21.457031 28.535156 21.113281 28.296875 20.933594 27.941406 C 20.796875 27.667969 20.71875 27.375 20.695312 27.074219 C 20.625 26.535156 20.667969 25.988281 20.796875 25.460938 C 20.839844 25.316406 20.894531 25.179688 20.96875 25.042969 C 21.152344 24.707031 21.492188 24.492188 21.871094 24.46875 C 22.324219 24.425781 22.78125 24.511719 23.191406 24.699219 C 23.292969 24.734375 23.355469 24.835938 23.347656 24.949219 C 23.328125 25.480469 23.339844 26 23.339844 26.519531 Z M 30.089844 27.199219 C 30.589844 27.164062 31.085938 27.070312 31.53125 26.832031 C 31.988281 26.605469 32.304688 26.1875 32.398438 25.6875 C 32.460938 25.378906 32.460938 25.054688 32.390625 24.746094 C 32.210938 23.972656 31.722656 23.492188 30.984375 23.242188 C 30.574219 23.113281 30.132812 23.0625 29.707031 23.082031 C 28.265625 23.113281 27.167969 23.84375 26.71875 25.285156 C 26.417969 26.238281 26.460938 27.210938 26.753906 28.160156 C 27.054688 29.140625 27.738281 29.730469 28.71875 30 C 29.136719 30.101562 29.574219 30.144531 30.003906 30.125 C 30.632812 30.117188 31.257812 30 31.847656 29.777344 C 32.097656 29.679688 32.15625 29.59375 32.15625 29.328125 L 32.15625 28.710938 C 32.148438 28.464844 32.046875 28.378906 31.796875 28.4375 C 31.609375 28.488281 31.425781 28.53125 31.238281 28.574219 C 30.664062 28.714844 30.0625 28.738281 29.476562 28.636719 C 28.894531 28.523438 28.5 28.191406 28.347656 27.609375 C 28.304688 27.4375 28.269531 27.265625 28.25 27.082031 C 28.292969 27.082031 28.335938 27.082031 28.371094 27.101562 C 28.941406 27.199219 29.515625 27.242188 30.089844 27.199219 Z M 28.296875 25.824219 C 28.359375 25.488281 28.4375 25.164062 28.640625 24.890625 C 28.957031 24.46875 29.394531 24.347656 29.894531 24.402344 C 29.9375 24.402344 29.96875 24.417969 30.011719 24.417969 C 30.613281 24.511719 30.757812 24.992188 30.648438 25.457031 C 30.5625 25.800781 30.277344 25.929688 29.960938 25.988281 C 29.789062 26.023438 29.609375 26.039062 29.429688 26.03125 C 29.078125 26.023438 28.734375 25.996094 28.390625 25.945312 C 28.316406 25.9375 28.28125 25.902344 28.296875 25.824219 Z M 28.296875 25.824219 "/>
<path style=" stroke:none;fill-rule:nonzero;fill:rgb(100%,100%,100%);fill-opacity:1;" d="M 24.484375 39.597656 C 24.1875 39.589844 23.882812 39.589844 23.585938 39.597656 C 23.171875 39.574219 22.757812 39.558594 22.34375 39.53125 C 21.246094 39.445312 20.15625 39.28125 19.089844 39.03125 C 15.402344 38.175781 12.160156 36.457031 9.335938 33.953125 C 9.070312 33.71875 8.824219 33.480469 8.566406 33.238281 C 8.507812 33.183594 8.453125 33.109375 8.425781 33.035156 C 8.378906 32.929688 8.402344 32.816406 8.476562 32.734375 C 8.554688 32.652344 8.675781 32.621094 8.777344 32.667969 C 8.847656 32.695312 8.914062 32.726562 8.972656 32.765625 C 11.671875 34.433594 14.621094 35.652344 17.707031 36.371094 C 18.746094 36.613281 19.789062 36.800781 20.84375 36.9375 C 22.351562 37.125 23.878906 37.191406 25.394531 37.140625 C 26.214844 37.117188 27.027344 37.042969 27.839844 36.9375 C 29.734375 36.695312 31.605469 36.265625 33.414062 35.667969 C 34.371094 35.351562 35.300781 34.988281 36.210938 34.570312 C 36.347656 34.492188 36.511719 34.472656 36.664062 34.507812 C 36.910156 34.570312 37.0625 34.824219 37 35.074219 C 36.992188 35.101562 36.980469 35.140625 36.964844 35.171875 C 36.902344 35.285156 36.820312 35.382812 36.714844 35.457031 C 35.851562 36.132812 34.917969 36.726562 33.933594 37.222656 C 32.078125 38.160156 30.09375 38.832031 28.050781 39.214844 C 26.867188 39.425781 25.683594 39.550781 24.484375 39.597656 Z M 37.40625 32.269531 C 37.902344 32.285156 38.390625 32.316406 38.871094 32.441406 C 39.007812 32.480469 39.136719 32.527344 39.261719 32.585938 C 39.433594 32.652344 39.546875 32.820312 39.570312 33 C 39.601562 33.210938 39.609375 33.425781 39.59375 33.644531 C 39.496094 34.929688 39.09375 36.167969 38.433594 37.273438 C 38.195312 37.671875 37.902344 38.035156 37.5625 38.347656 C 37.496094 38.417969 37.410156 38.46875 37.324219 38.5 C 37.179688 38.539062 37.089844 38.460938 37.082031 38.320312 C 37.089844 38.242188 37.105469 38.167969 37.136719 38.09375 C 37.398438 37.386719 37.652344 36.6875 37.855469 35.957031 C 37.976562 35.5625 38.058594 35.15625 38.113281 34.742188 C 38.128906 34.589844 38.136719 34.441406 38.121094 34.289062 C 38.113281 34.035156 37.949219 33.816406 37.699219 33.742188 C 37.464844 33.664062 37.226562 33.621094 36.976562 33.605469 C 36.285156 33.574219 35.597656 33.605469 34.910156 33.695312 L 34.003906 33.808594 C 33.90625 33.816406 33.8125 33.808594 33.761719 33.71875 C 33.707031 33.628906 33.730469 33.539062 33.785156 33.449219 C 33.84375 33.363281 33.917969 33.289062 34.011719 33.238281 C 34.566406 32.839844 35.191406 32.597656 35.851562 32.441406 C 36.363281 32.335938 36.878906 32.285156 37.40625 32.269531 Z M 37.40625 32.269531 "/>
</g>
</svg>
