<svg viewBox="240 120 544 544" xmlns="http://www.w3.org/2000/svg">
  <defs>
    <linearGradient id="tvGradient" x1="0%" y1="0%" x2="100%" y2="100%">
      <stop offset="0%" style="stop-color:#00fed7;stop-opacity:1" />
      <stop offset="50%" style="stop-color:#00d4b8;stop-opacity:1" />
      <stop offset="100%" style="stop-color:#00a89a;stop-opacity:1" />
    </linearGradient>
  </defs>
  <g transform="rotate(180 512 512)">
    <path fill="url(#tvGradient)" d="M388.3 902c-4-2.4-5.3-4.8-5.3-9.9 0-4.5-3.3-.3 38-48.1 14-16.2 27.9-32.3 30.8-35.7l5.3-6.2-3.1-3.9c-3.7-4.7-5.7-5.2-21.5-5.2-29.4 0-118.7-6-129-8.6-25.5-6.5-43.6-27.7-46.5-54.7-4.7-42.8-6.3-153.3-3-202.2 3.7-54.6 7-66.5 23-82.6 12.1-12.1 23.8-17.1 43.8-18.5 6.2-.5 9.2-1.1 9.2-1.9 0-.7-1.6-9.1-3.6-18.6-2.9-14.4-3.4-18-2.5-20.9 3.3-11.1 18.2-13.4 25.4-3.9 1.3 1.9 6.6 11.1 11.5 20.4 5 9.4 9.5 17.7 10 18.4.7 1.3 3.6 1.3 20.8.3 45.1-2.8 70.6-3.5 122.9-3.5 52.5-.1 97.2 1.4 126 4.2 6.5.7 9.3.6 10.1-.2.6-.7 5.7-9.7 11.3-20.2 12.1-22.6 13.9-24.7 21.4-25.3 6.5-.5 10.9 1.4 13.7 6.1 2.6 4.3 2.6 5.5-1.5 25.6-1.9 9.5-3.3 17.6-3 18 .2.5 3.9 1.1 8.2 1.5 18.1 1.6 32.8 7 42.6 15.7 9.7 8.5 18.2 23.6 20.8 37.2 5.4 27.9 7.4 137.5 4 211.2-2.1 43.5-3.2 50.4-10.2 63.6-8.4 15.6-25.1 27.4-44.8 31.4-10.6 2.2-60.9 5.3-118.9 7.4l-22.3.8-4.2 4.1c-3.1 3.1-3.9 4.6-3.2 5.6.6.7 16.8 19.5 36 41.6 19.3 22.1 35.5 41.2 36.2 42.4.7 1.1 1.2 3.8 1.3 5.9 0 3.1-.7 4.6-3.4 7.3-2.8 2.8-4.2 3.4-7.5 3.4-5.8 0-9.3-2.1-14.8-9-5.6-6.9-39.3-46.9-57.6-68.5-7.1-8.2-13.4-14.9-14-14.8-.7.1-5.7 1.1-11.2 2.3-12.5 2.7-31.7 2.3-43.2-.8l-7.3-2-9.2 11.2c-5 6.1-15.5 18.5-23.3 27.6-7.8 9.1-20.3 23.9-27.9 33-7.5 9.1-15.1 17.5-16.8 18.8-3.8 2.7-9.2 2.9-13.5.2zm164.2-148c31-1.4 64.3-3.9 69-5.1 15.5-4.2 28.1-18 30.5-33.5 4.7-30.4 4.7-183-.1-217.9-1.9-14.3-11.5-26.9-23.9-31.6-15.4-5.8-108.4-10.1-175.3-8-69.8 2.1-115.8 4.9-126.3 7.7-7.3 1.9-10.9 4.1-16.8 10.4-8.6 9.2-10.7 16.7-12.5 46-3.5 54.7-3 144.7 1 185 1.6 16.4 6.7 25.7 18.2 33.1 7.7 5 14.7 6.4 44.2 8.9 66 5.5 139.2 7.4 192 5zm168.2-53.1c4.1-2.5 9-9.7 9.9-14.5 1.5-8.2-3.9-18.5-11.9-22.5-5.8-3-14.8-3-20.4-.1-16.8 8.8-14 35 4.3 39.7 5.8 1.5 13.2.4 18.1-2.6zm-4-65c5.9-2.2 12.2-10.2 13.8-17.6 1-4.9-1.8-13.2-5.7-17-5.1-4.8-9-6.3-16.1-6.3-12.4 0-20.8 7.5-21.5 19.4-.3 4.9 0 7.1 1.6 10.2 2.5 4.8 6.6 8.8 11.2 10.8 4.1 1.8 12.7 2.1 16.7.5zm17.5-86.4c.8-1.9.8-3.1 0-5-1.3-2.8.5-2.7-31-2.7-17.6 0-19.2.4-19.2 5.1 0 5 .7 5.1 25.7 5.1l23.3 0 1.2-2.5zm-1-24.2c2.4-2.1 2.3-4.8-.2-7.3-1.9-1.9-3.3-2-23.7-2-23.7 0-25.3.4-25.3 6 0 4.8.8 5 24.9 5 19.5 0 22.7-.2 24.3-1.7zm0-24c2.2-2 2.3-5.1.1-7.5-1.5-1.6-3.6-1.8-23.6-1.8-19.1 0-22.3.2-23.9 1.7-2.3 2.1-2.4 6.9 0 8.2 1 .6 10.6 1.1 23.6 1.1 19 0 22.2-.2 23.8-1.7z"/>
    <path fill="url(#tvGradient)" d="M549.3 713.6l-2.8-2.4-.2-33.9c-.1-18.6.1-37.4.4-41.9l.6-8 7.6 1.4c11.7 2.2 27.2 0 43.4-6.3 1.6-.7 1.7 1.8 1.7 42.8 0 29.8-.4 44.4-1.1 46-1.9 4.2-4.7 4.7-26.4 4.7-20.1 0-20.4 0-23.2-2.4zM479.5 667.5l-2.5-2.4 0-80.9c0-78.2.1-81.1 1.9-83.3 1.8-2.2 2.8-2.4 12.5-2.7l10.7-.4-4.6 6.5c-16.9 24.3-19.4 55.1-6.4 81.4 6.8 13.8 19.5 27 32.5 34l5.6 3-.1 21.4-.1 21.4-2.6 2.3c-2.4 2.1-3.2 2.2-23.5 2.2-21 0-21 0-23.4-2.5zM411.2 628c-1.2-1.1-2.4-3.1-2.7-4.3-.3-1.2-.4-28.9-.3-61.5l.3-59.4 2.8-2.4c2.8-2.4 3.1-2.4 22.7-2.4 21.2 0 24 .5 25.9 4.7.8 1.7 1.1 20.6 1.1 62.4l0 60-2.5 2.4c-2.4 2.5-2.4 2.5-23.8 2.5-20 0-21.5-.1-23.5-2zM552.8 617c-19-3.4-37.8-15.8-47.6-31.3-7-11-9.4-19.4-9.9-33.7-.8-22.2 4.1-35.5 18.6-50.1 13.8-13.9 29.3-20.3 48.6-20.3 11.9.1 22.3 2.6 33 8.1 9.8 5.1 23.8 19.2 28.3 28.7 4.9 10.1 7.2 20.2 7.2 31.5 0 11.7-1.7 18.9-7.2 30.1-5.3 10.9"/>
  </g>
</svg>