<?xml version="1.0" standalone="no"?>
<!DOCTYPE svg PUBLIC "-//W3C//DTD SVG 20010904//EN"
 "http://www.w3.org/TR/2001/REC-SVG-20010904/DTD/svg10.dtd">
<svg version="1.0" xmlns="http://www.w3.org/2000/svg"
 width="1024.000000pt" height="1024.000000pt" viewBox="0 0 1024.000000 1024.000000"
 preserveAspectRatio="xMidYMid meet">

<g transform="translate(0.000000,1024.000000) scale(0.100000,-0.100000)"
fill="#000000" stroke="none">
<path d="M3883 9020 c-40 -24 -53 -48 -53 -99 0 -45 -33 -3 380 -481 140 -162
279 -323 308 -357 l53 -62 -31 -39 c-37 -47 -57 -52 -215 -52 -294 0 -1187
-60 -1290 -86 -255 -65 -436 -277 -465 -547 -47 -428 -63 -1533 -30 -2022 37
-546 70 -665 230 -826 121 -121 238 -171 438 -185 62 -5 92 -11 92 -19 0 -7
-16 -91 -36 -186 -29 -144 -34 -180 -25 -209 33 -111 182 -134 254 -39 13 19
66 111 115 204 50 94 95 177 100 184 7 13 36 13 208 3 451 -28 706 -35 1229
-35 525 -1 972 14 1260 42 65 7 93 6 101 -2 6 -7 57 -97 113 -202 121 -226
139 -247 214 -253 65 -5 109 14 137 61 26 43 26 55 -15 256 -19 95 -33 176
-30 180 2 5 39 11 82 15 181 16 328 70 426 157 97 85 182 236 208 372 54 279
74 1375 40 2112 -21 435 -32 504 -102 636 -84 156 -251 274 -448 314 -106 22
-609 53 -1189 74 l-223 8 -42 41 c-31 31 -39 46 -32 56 6 7 168 195 360 416
193 221 355 412 362 424 7 11 12 38 13 59 0 31 -7 46 -34 73 -28 28 -42 34
-75 34 -58 0 -93 -21 -148 -90 -56 -69 -393 -469 -576 -685 -71 -82 -134 -149
-140 -148 -7 1 -57 11 -112 23 -125 27 -317 23 -432 -8 l-73 -20 -92 112 c-50
61 -155 185 -233 276 -78 91 -203 239 -279 330 -75 91 -151 175 -168 188 -38
27 -92 29 -135 2z m1642 -1480 c310 -14 643 -39 690 -51 155 -42 281 -180 305
-335 47 -304 47 -1830 -1 -2179 -19 -143 -115 -269 -239 -316 -154 -58 -1084
-101 -1753 -80 -698 21 -1158 49 -1263 77 -73 19 -109 41 -168 104 -86 92
-107 167 -125 460 -35 547 -30 1447 10 1850 16 164 67 257 182 331 77 50 147
64 442 89 660 55 1392 74 1920 50z m1682 -531 c41 -25 90 -97 99 -145 15 -82
-39 -185 -119 -225 -58 -30 -148 -30 -204 -1 -168 88 -140 350 43 397 58 15
132 4 181 -26z m-40 -650 c59 -22 122 -102 138 -176 10 -49 -18 -132 -57 -170
-51 -48 -90 -63 -161 -63 -124 0 -208 75 -215 194 -3 49 0 71 16 102 25 48 66
88 112 108 41 18 127 21 167 5z m175 -864 c8 -19 8 -31 0 -50 -13 -28 5 -27
-310 -27 -176 0 -192 4 -192 51 0 50 7 51 257 51 l233 0 12 -25z m-10 -242
c24 -21 23 -48 -2 -73 -19 -19 -33 -20 -237 -20 -237 0 -253 4 -253 60 0 48 8
50 249 50 195 0 227 -2 243 -17z m0 -240 c22 -20 23 -51 1 -75 -15 -16 -36
-18 -236 -18 -191 0 -223 2 -239 17 -23 21 -24 69 0 82 10 6 106 11 236 11
190 0 222 -2 238 -17z"/>
<path d="M5493 7136 l-28 -24 -2 -339 c-1 -186 1 -374 4 -419 l6 -80 76 14
c117 22 272 0 434 -63 16 -7 17 18 17 428 0 298 -4 444 -11 460 -19 42 -47 47
-264 47 -201 0 -204 0 -232 -24z"/>
<path d="M4795 6675 l-25 -24 0 -809 c0 -782 1 -811 19 -833 18 -22 28 -24
125 -27 l107 -4 -46 65 c-169 243 -194 551 -64 814 68 138 195 270 325 340
l56 30 -1 214 -1 214 -26 23 c-24 21 -32 22 -235 22 -210 0 -210 0 -234 -25z"/>
<path d="M4112 6280 c-12 -11 -24 -31 -27 -43 -3 -12 -4 -289 -3 -615 l3 -594
28 -24 c28 -24 31 -24 227 -24 212 0 240 5 259 47 8 17 11 206 11 624 l0 600
-25 24 c-24 25 -24 25 -238 25 -200 0 -215 -1 -235 -20z"/>
<path d="M5528 6170 c-190 -34 -378 -158 -476 -313 -70 -110 -94 -194 -99
-337 -8 -222 41 -355 186 -501 138 -139 293 -203 486 -203 119 1 223 26 330
81 98 51 238 192 283 287 49 101 72 202 72 315 0 117 -17 189 -72 301 -53 109
-176 236 -283 292 -137 71 -302 101 -427 78z m471 -380 c5 0 20 -12 35 -26 20
-20 26 -37 26 -68 0 -40 -5 -45 -238 -278 -303 -304 -266 -296 -463 -100 -136
134 -139 138 -139 180 0 59 33 92 91 92 39 0 47 -6 133 -90 51 -49 97 -90 103
-90 6 0 89 81 186 180 171 176 218 215 245 205 8 -3 17 -5 21 -5z"/>
<path d="M3441 5834 c-20 -26 -21 -37 -21 -413 1 -288 4 -390 13 -402 27 -35
54 -39 247 -39 l191 0 25 27 25 27 -3 394 -3 394 -24 19 c-21 17 -41 19 -226
19 l-204 0 -20 -26z"/>
<path d="M1260 3234 l0 -124 175 0 175 0 0 -505 0 -505 145 0 145 0 0 505 0
505 170 0 171 0 -3 122 -3 122 -487 1 -488 2 0 -123z"/>
<path d="M2413 3352 c-40 -2 -73 -5 -73 -8 0 -10 355 -1014 416 -1176 l26 -68
157 0 157 0 21 63 c11 34 68 195 126 357 160 449 297 834 297 837 0 4 -300 -3
-304 -8 -2 -2 -67 -200 -145 -439 -78 -239 -144 -442 -147 -450 -3 -8 -74 190
-157 440 l-152 455 -75 0 c-41 0 -108 -1 -147 -3z"/>
<path d="M4180 2728 l0 -628 135 0 135 0 0 215 0 215 69 0 c83 0 64 20 226
-238 l120 -192 159 0 158 0 -18 28 c-175 266 -274 427 -266 430 31 10 131 83
161 117 19 21 45 64 60 94 22 49 25 69 26 166 0 104 -2 114 -32 176 -37 76
-115 155 -189 191 -95 48 -130 52 -446 52 l-298 1 0 -627z m580 355 c70 -37
92 -77 88 -158 -4 -72 -29 -113 -85 -141 -30 -15 -66 -20 -175 -22 l-138 -4 0
176 0 176 129 0 c121 0 132 -2 181 -27z"/>
<path d="M5721 3338 c-5 -13 -45 -122 -90 -243 -44 -121 -146 -394 -225 -607
l-143 -388 148 0 147 0 11 33 c6 17 24 68 40 112 l28 80 240 3 240 2 39 -112
40 -113 152 -3 c84 -1 152 -1 152 2 0 12 -445 1209 -460 1237 -10 17 -22 19
-161 19 -146 0 -150 -1 -158 -22z m243 -542 c42 -120 76 -220 76 -222 0 -2
-70 -4 -155 -4 -117 0 -155 3 -155 13 0 9 84 256 145 426 3 8 7 12 9 10 2 -2
38 -102 80 -223z"/>
<path d="M6640 2730 l0 -630 140 0 140 0 1 388 c0 383 0 387 19 362 11 -14 97
-133 193 -265 95 -132 213 -295 262 -362 l90 -123 123 0 122 0 0 628 0 627
-108 0 c-59 -1 -122 -2 -140 -3 l-32 -2 2 -380 c2 -209 1 -380 -2 -380 -3 0
-86 111 -185 247 -99 136 -208 285 -242 331 -35 47 -77 107 -95 133 -18 26
-42 50 -53 52 -11 3 -68 6 -127 6 l-108 1 0 -630z"/>
<path d="M8000 2730 l0 -630 140 0 140 0 0 178 0 177 68 74 67 73 168 -251
167 -251 171 0 c133 0 169 3 163 13 -5 6 -81 118 -169 247 -234 341 -305 448
-305 459 0 5 24 36 53 68 153 168 397 454 397 464 0 9 -312 11 -326 1 -6 -4
-94 -106 -195 -227 -101 -122 -201 -241 -221 -265 l-38 -44 0 272 0 272 -140
0 -140 0 0 -630z"/>
<path d="M3500 2680 l0 -120 240 0 240 0 0 120 0 120 -240 0 -240 0 0 -120z"/>
</g>
</svg>
